<svg width="25" height="25" viewBox="0 0 25 25" fill="none" xmlns="http://www.w3.org/2000/svg">
<g clip-path="url(#clip0_1_1158)">
<path d="M0.00122402 18.1612C0.152243 17.9741 0.289195 17.7735 0.456111 17.6023C1.03084 17.0153 1.61107 16.4336 2.1968 15.8572C2.72506 15.3337 2.99163 14.7211 2.98613 13.9616C2.96657 11.9364 2.98614 9.91061 2.97574 7.88481C2.96134 7.21194 3.21112 6.56021 3.67153 6.06935C4.94021 4.66296 6.19543 3.24068 7.45616 1.82512C7.97219 1.24545 8.60195 1.37142 8.84652 2.10579C8.90766 2.28312 8.9425 2.46779 9.00792 2.64206C9.07885 2.831 9.00792 2.92578 8.84773 3.03156C6.58551 4.51866 5.11079 6.57809 4.62899 9.24717C4.0078 12.6995 5.01357 15.6676 7.57967 18.0634C9.34664 19.7143 11.4848 20.5007 13.8962 20.5508C14.1695 20.5563 14.4464 20.5264 14.6574 20.516C14.7307 21.0284 14.8004 21.5182 14.872 22.019H14.6097C13.3807 22.019 12.1524 22.0232 10.9241 22.019C10.5859 22.0097 10.2497 22.0727 9.93792 22.2039C9.62612 22.3351 9.34594 22.5314 9.11614 22.7796C8.55364 23.3675 7.98442 23.9488 7.40847 24.5235C7.23361 24.6978 7.02757 24.8415 6.83619 24.9993H6.4455C6.25841 24.8482 6.05664 24.7131 5.88728 24.5443C4.07261 22.7372 2.26182 20.9265 0.454894 19.112C0.286144 18.9426 0.149184 18.7409 0 18.5544L0.00122402 18.1612Z" fill="#EBEBED"/>
<path d="M14.9949 16.0762C14.5058 17.0961 14.636 18.039 15.3386 18.9464C15.1521 18.9788 14.9913 19.0155 14.8286 19.032C12.811 19.2418 10.97 18.7654 9.31554 17.5994C7.85244 16.5684 6.83383 15.1908 6.29823 13.4848C5.60978 11.2908 5.80543 9.15862 6.92431 7.14382C7.95943 5.27945 9.51425 4.02043 11.549 3.36738C11.7159 3.31418 11.7753 3.24141 11.771 3.06164C11.7575 2.54128 11.7661 2.02214 11.7661 1.46264C11.5417 1.46264 11.3259 1.46264 11.1106 1.46264C10.6319 1.45714 10.3054 1.1618 10.303 0.733765C10.3005 0.305736 10.6276 0 11.1033 0C13.0072 0 14.9112 0 16.8151 0C17.2926 0 17.621 0.300845 17.6234 0.72704C17.6258 1.15324 17.2981 1.46081 16.8243 1.46081C16.614 1.46081 16.4036 1.46081 16.1615 1.46081C16.1615 2.04965 16.156 2.6226 16.1707 3.198C16.1707 3.25425 16.293 3.33191 16.3712 3.35698C17.3073 3.66475 18.1822 4.13412 18.9563 4.7438C19.7242 5.33693 20.6389 6.44063 21.0803 7.35233C21.0045 7.35845 20.9372 7.36823 20.87 7.36823C20.1785 7.36823 19.4864 7.35784 18.7955 7.37434C18.512 7.37648 18.2301 7.41763 17.9578 7.49664C17.7665 7.55779 17.668 7.51376 17.539 7.38841C16.455 6.33485 15.1545 5.83222 13.645 5.91538C10.6289 6.0817 8.38681 8.91159 8.91324 11.8778C9.41215 14.6949 11.9819 16.5213 14.8115 16.0707C14.8727 16.0682 14.934 16.07 14.9949 16.0762Z" fill="#EBEBED"/>
<path d="M21.3339 8.83897C22.1899 8.83897 23.0428 8.83286 23.8975 8.83897C24.1275 8.83753 24.3521 8.90909 24.5389 9.04336C24.7256 9.17763 24.865 9.36768 24.9369 9.58619C25.0843 10.0277 24.9589 10.5211 24.5701 10.7835C24.3646 10.9256 24.1238 11.0081 23.8743 11.0219C22.1624 11.0421 20.4565 11.0372 18.7476 11.0305C18.1032 11.0305 17.6183 10.5358 17.6251 9.92311C17.6318 9.31042 18.1142 8.84448 18.7458 8.83836C19.6085 8.83286 20.4712 8.83836 21.3339 8.83897Z" fill="#EBEBED"/>
<path d="M19.8189 14.6967C18.9629 14.6967 18.1069 14.704 17.2552 14.6967C17.0252 14.6971 16.801 14.6242 16.6151 14.4887C16.4292 14.3531 16.2913 14.1619 16.2214 13.9428C16.0771 13.5007 16.2067 13.009 16.5949 12.7479C16.7933 12.6095 17.026 12.5287 17.2675 12.5144C18.9678 12.4948 20.6688 12.4985 22.3697 12.5064C22.5148 12.5037 22.6589 12.5298 22.7938 12.5832C22.9286 12.6367 23.0515 12.7164 23.1553 12.8178C23.2591 12.9192 23.3417 13.0402 23.3982 13.1738C23.4548 13.3074 23.4843 13.451 23.4849 13.596C23.4849 14.2075 23.0025 14.6924 22.3562 14.6967C21.5101 14.7046 20.6639 14.6967 19.8177 14.6967H19.8189Z" fill="#EBEBED"/>
<path d="M19.1167 16.1609C19.7281 16.1609 20.3395 16.1499 20.9478 16.164C21.2071 16.1681 21.4563 16.2646 21.6508 16.4361C21.8452 16.6076 21.9721 16.8428 22.0086 17.0995C22.0451 17.3473 21.9949 17.6001 21.8664 17.815C21.7379 18.03 21.5391 18.1939 21.3037 18.2791C21.1574 18.3278 21.0042 18.3528 20.85 18.3531C19.6785 18.3584 18.5067 18.3584 17.3344 18.3531C16.6533 18.3531 16.1568 17.8749 16.1641 17.2432C16.1715 16.6208 16.6624 16.1628 17.3344 16.1579C17.9287 16.1542 18.523 16.1579 19.1167 16.1579V16.1609Z" fill="#EBEBED"/>
<path d="M13.2352 10.3041C13.2352 9.5569 13.2279 8.84209 13.2352 8.12728C13.2419 7.5843 13.7458 7.23453 14.2288 7.42959C14.5198 7.54699 14.6892 7.77385 14.6916 8.08631C14.701 9.07812 14.701 10.0701 14.6916 11.0623C14.6917 11.1546 14.6735 11.246 14.6382 11.3313C14.6029 11.4165 14.5511 11.4939 14.4857 11.5591C14.4204 11.6243 14.3428 11.6759 14.2575 11.711C14.1722 11.7461 14.0808 11.764 13.9885 11.7637C12.996 11.7747 12.0038 11.7747 11.0121 11.7637C10.8222 11.7611 10.6411 11.6833 10.5085 11.5474C10.3759 11.4114 10.3026 11.2284 10.3047 11.0385C10.3038 10.9424 10.3221 10.8472 10.3584 10.7582C10.3946 10.6693 10.4483 10.5885 10.5161 10.5205C10.5839 10.4525 10.6646 10.3986 10.7534 10.3621C10.8423 10.3256 10.9375 10.3071 11.0335 10.3078C11.6676 10.298 12.3022 10.3047 12.9362 10.3041H13.2352Z" fill="#EBEBED"/>
<path d="M18.3413 22.0253C17.9916 22.0253 17.6412 22.0302 17.2915 22.0253C16.6459 22.0131 16.1604 21.5361 16.1641 20.9247C16.1678 20.3132 16.6465 19.843 17.2799 19.835C17.9959 19.8252 18.7124 19.8265 19.4284 19.835C20.0741 19.8423 20.5595 20.3242 20.5558 20.9357C20.5522 21.5471 20.0667 22.0167 19.4156 22.0265C19.0573 22.0296 18.6996 22.0253 18.3413 22.0253Z" fill="#EBEBED"/>
</g>
<defs>
<clipPath id="clip0_1_1158">
<rect width="25" height="25" fill="white"/>
</clipPath>
</defs>
</svg>
